<svg id="svg" version="1.1" xmlns="http://www.w3.org/2000/svg" xmlns:xlink="http://www.w3.org/1999/xlink" width="400" height="400" viewBox="0, 0, 400,400"><g id="svgg"><path id="path0" d="M75.200 13.400 C 75.200 13.730,74.930 14.000,74.600 14.000 C 73.741 14.000,75.323 15.522,76.848 16.163 C 78.402 16.817,69.460 17.601,56.400 17.955 C 51.450 18.090,121.920 18.200,213.000 18.200 C 304.080 18.200,375.326 18.085,371.324 17.945 C 359.865 17.544,353.893 16.832,355.522 16.060 C 356.225 15.727,356.800 15.233,356.800 14.961 C 356.800 14.689,357.025 14.376,357.300 14.265 C 357.700 14.104,357.700 14.057,357.300 14.032 C 357.025 14.014,356.800 13.730,356.800 13.400 C 356.800 12.868,340.889 12.800,216.000 12.800 C 91.111 12.800,75.200 12.868,75.200 13.400 M61.600 22.885 C 67.870 23.042,74.440 23.222,76.200 23.285 L 79.400 23.400 77.400 24.041 L 75.400 24.682 75.287 29.326 L 75.175 33.970 73.987 34.671 L 72.800 35.372 72.800 44.837 C 72.800 52.762,72.898 54.383,73.400 54.800 C 73.871 55.191,74.000 56.308,74.000 60.000 C 74.000 63.692,74.129 64.809,74.600 65.200 C 75.100 65.615,75.200 67.166,75.200 74.517 C 75.200 81.819,75.304 83.452,75.804 84.004 C 76.728 85.026,73.159 85.685,65.000 86.001 C 61.260 86.146,128.490 86.265,214.400 86.267 C 300.310 86.268,367.900 86.134,364.600 85.968 C 358.089 85.641,355.068 84.940,356.183 84.014 C 356.737 83.554,356.794 80.280,356.703 54.069 L 356.600 24.641 354.000 23.959 L 351.400 23.277 356.600 23.185 C 383.188 22.716,354.956 22.600,213.800 22.600 C 123.820 22.600,55.330 22.728,61.600 22.885 M60.000 90.885 C 67.370 91.042,74.660 91.222,76.200 91.285 L 79.000 91.400 77.200 92.035 C 75.044 92.796,74.581 94.402,76.388 94.853 C 77.179 95.050,77.029 95.116,75.700 95.153 C 72.917 95.230,73.768 95.907,77.100 96.266 C 81.094 96.696,352.381 96.706,354.900 96.275 C 356.969 95.922,357.463 95.229,355.700 95.153 L 354.600 95.105 355.612 94.853 C 357.504 94.381,356.948 92.795,354.600 91.967 L 352.600 91.262 357.400 91.180 C 360.040 91.135,366.160 90.986,371.000 90.849 C 375.840 90.712,304.830 90.600,213.200 90.600 C 121.570 90.600,52.630 90.728,60.000 90.885 M71.200 95.800 C 71.200 96.130,71.380 96.400,71.600 96.400 C 71.820 96.400,72.000 96.130,72.000 95.800 C 72.000 95.470,71.820 95.200,71.600 95.200 C 71.380 95.200,71.200 95.470,71.200 95.800 " stroke="none" fill="#d71c23" fill-rule="evenodd"></path><path id="path1" d="M27.200 20.195 L 27.200 21.590 207.325 21.597 C 306.394 21.602,388.294 21.490,389.325 21.348 C 391.291 21.079,392.076 19.622,390.567 19.043 C 390.219 18.909,308.319 18.800,208.567 18.800 L 27.200 18.800 27.200 20.195 M5.242 40.362 C 2.751 41.955,6.145 42.468,18.200 42.319 L 27.800 42.200 27.800 41.200 L 27.800 40.200 16.800 40.103 C 10.750 40.049,5.549 40.166,5.242 40.362 M60.146 87.100 C 30.556 87.202,29.686 87.227,29.492 87.969 C 29.382 88.389,29.488 88.928,29.726 89.166 C 30.384 89.824,390.062 89.778,390.720 89.120 C 392.555 87.285,393.699 87.350,354.900 87.066 C 321.813 86.824,133.922 86.846,60.146 87.100 M4.800 108.739 C 4.800 110.407,4.860 110.410,31.178 110.303 L 56.467 110.200 55.134 109.200 L 53.800 108.200 29.300 108.088 C 5.426 107.979,4.800 107.996,4.800 108.739 " stroke="none" fill="#f8e7e3" fill-rule="evenodd"></path><path id="path2" d="M28.400 13.200 C 28.400 13.420,28.130 13.600,27.800 13.600 C 27.339 13.600,27.207 14.086,27.232 15.700 C 27.249 16.855,27.354 17.575,27.465 17.300 C 27.579 17.018,28.359 16.800,29.257 16.800 C 30.281 16.800,30.753 16.648,30.584 16.373 C 30.439 16.139,30.226 16.040,30.112 16.154 C 29.998 16.269,29.642 16.099,29.320 15.777 C 28.999 15.456,28.595 15.280,28.423 15.386 C 28.251 15.492,28.130 15.184,28.155 14.701 C 28.181 14.195,28.624 13.609,29.200 13.318 C 30.180 12.822,30.182 12.812,29.300 12.806 C 28.805 12.803,28.400 12.980,28.400 13.200 M393.476 15.900 C 393.298 16.175,393.266 16.400,393.405 16.400 C 393.544 16.400,393.342 16.715,392.957 17.100 C 392.290 17.767,392.291 17.806,392.960 17.935 C 393.911 18.119,394.083 17.871,393.930 16.537 C 393.844 15.785,393.691 15.569,393.476 15.900 M27.199 27.900 L 27.200 32.800 14.600 32.800 L 2.000 32.800 2.000 35.551 C 2.000 38.743,2.476 39.455,4.177 38.809 C 4.823 38.563,10.107 38.400,17.426 38.400 L 29.600 38.400 29.600 36.289 C 29.600 35.128,29.360 33.823,29.066 33.389 C 27.993 31.805,28.159 24.407,29.268 24.362 C 29.781 24.340,31.100 24.099,32.200 23.826 L 34.200 23.328 30.699 23.164 L 27.198 23.000 27.199 27.900 M389.894 23.439 C 389.763 23.571,389.748 23.919,389.861 24.214 C 390.117 24.882,391.200 24.513,391.200 23.757 C 391.200 23.199,390.343 22.990,389.894 23.439 M387.899 29.777 C 387.063 30.388,386.980 31.200,387.753 31.200 C 388.058 31.200,388.411 30.803,388.537 30.317 C 388.828 29.205,388.760 29.147,387.899 29.777 M385.382 36.540 C 384.526 37.482,384.343 37.997,384.948 37.764 C 385.273 37.640,385.646 37.256,385.778 36.912 C 386.086 36.111,385.916 35.953,385.382 36.540 M384.446 39.080 C 384.421 39.564,384.085 40.144,383.700 40.368 C 383.315 40.592,383.203 40.781,383.451 40.788 C 384.163 40.807,384.884 39.709,384.679 38.919 C 384.530 38.343,384.484 38.374,384.446 39.080 M30.028 40.724 C 30.011 42.044,30.151 42.754,30.400 42.600 C 30.879 42.304,30.879 40.515,30.400 39.400 C 30.148 38.814,30.049 39.168,30.028 40.724 M6.400 43.607 C 6.400 43.837,5.995 44.189,5.500 44.388 C 4.810 44.665,4.764 44.755,5.300 44.775 C 5.850 44.795,6.000 45.155,6.000 46.456 C 6.000 47.462,6.235 48.286,6.599 48.556 C 6.929 48.800,7.238 49.495,7.286 50.100 C 7.347 50.855,7.598 51.200,8.087 51.200 C 8.666 51.200,8.800 51.541,8.800 53.013 C 8.800 54.255,8.989 54.898,9.400 55.055 C 9.770 55.197,10.000 55.805,10.000 56.643 C 10.000 57.533,10.191 58.000,10.555 58.000 C 11.028 58.000,11.427 59.098,11.673 61.083 C 11.706 61.348,11.973 61.658,12.267 61.770 C 12.560 61.883,12.800 62.526,12.800 63.200 C 12.800 63.920,13.047 64.520,13.400 64.655 C 13.742 64.787,14.000 65.383,14.000 66.043 C 14.000 66.805,14.205 67.200,14.600 67.200 C 14.989 67.200,15.218 67.622,15.250 68.400 C 15.278 69.060,15.345 69.780,15.400 70.000 C 15.455 70.220,15.523 70.580,15.550 70.800 C 15.578 71.020,15.870 71.200,16.200 71.200 C 16.676 71.200,16.800 71.778,16.800 74.000 C 16.800 76.222,16.676 76.800,16.200 76.800 C 15.870 76.800,15.578 76.980,15.550 77.200 C 15.523 77.420,15.455 77.780,15.400 78.000 C 15.345 78.220,15.278 78.940,15.250 79.600 C 15.218 80.378,14.989 80.800,14.600 80.800 C 14.181 80.800,14.000 81.222,14.000 82.200 C 14.000 83.154,13.816 83.600,13.422 83.600 C 13.016 83.600,12.808 84.166,12.722 85.500 C 12.638 86.815,12.426 87.400,12.034 87.400 C 11.707 87.400,11.399 87.907,11.307 88.598 C 11.219 89.257,10.888 90.081,10.573 90.430 C 10.258 90.778,10.000 91.724,10.000 92.531 C 10.000 93.570,9.824 94.000,9.400 94.000 C 8.983 94.000,8.800 94.420,8.800 95.380 C 8.800 96.216,8.553 96.898,8.175 97.110 C 7.547 97.461,7.287 98.229,7.231 99.900 C 7.213 100.420,6.946 100.800,6.600 100.800 C 6.147 100.800,6.000 101.289,6.000 102.800 C 6.000 104.311,5.853 104.800,5.400 104.800 C 5.070 104.800,4.800 105.151,4.800 105.581 C 4.800 106.345,5.260 106.362,26.889 106.390 C 39.037 106.406,49.702 106.528,50.589 106.662 C 53.827 107.149,58.800 110.069,58.800 111.482 C 58.800 111.972,9.327 112.024,3.800 111.540 L 2.200 111.400 2.082 114.100 L 1.963 116.800 36.582 116.800 L 71.200 116.800 71.200 106.600 C 71.200 98.588,71.090 96.400,70.689 96.400 C 70.408 96.400,69.870 96.040,69.493 95.600 C 68.837 94.834,68.280 94.798,56.504 94.750 C 49.737 94.723,40.960 94.588,37.000 94.450 L 29.800 94.200 29.800 93.219 C 29.800 92.394,30.086 92.162,31.600 91.758 L 33.400 91.279 31.200 91.233 C 27.518 91.157,26.343 88.722,28.656 85.964 L 29.800 84.600 29.600 64.000 L 29.400 43.400 17.900 43.294 C 10.084 43.222,6.400 43.322,6.400 43.607 M378.406 52.700 C 378.424 53.577,379.188 54.159,379.194 53.300 C 379.197 52.805,379.020 52.400,378.800 52.400 C 378.580 52.400,378.403 52.535,378.406 52.700 M380.832 60.300 C 380.854 60.788,380.929 60.835,381.080 60.455 C 381.263 59.994,381.351 59.994,381.642 60.455 C 381.913 60.881,381.989 60.848,381.994 60.300 C 381.997 59.915,381.730 59.600,381.400 59.600 C 381.070 59.600,380.814 59.915,380.832 60.300 M383.908 67.362 C 384.289 68.111,384.656 68.480,384.725 68.183 C 384.882 67.507,384.101 66.000,383.594 66.000 C 383.387 66.000,383.528 66.613,383.908 67.362 M386.000 73.757 C 386.000 74.064,386.270 74.418,386.600 74.545 C 387.271 74.802,387.304 74.736,386.957 73.833 C 386.657 73.051,386.000 72.999,386.000 73.757 M387.664 77.454 C 388.028 77.864,388.416 78.650,388.524 79.200 C 388.635 79.764,388.695 79.503,388.661 78.603 C 388.613 77.350,388.428 76.974,387.800 76.857 C 387.048 76.716,387.039 76.751,387.664 77.454 M390.000 83.908 C 390.000 84.352,390.270 84.818,390.600 84.945 C 390.950 85.079,391.200 84.951,391.200 84.636 C 391.200 84.340,390.930 83.874,390.600 83.600 C 390.100 83.185,390.000 83.237,390.000 83.908 M392.706 90.715 C 392.516 91.444,393.207 92.800,393.769 92.800 C 394.232 92.800,393.838 90.274,393.351 90.114 C 393.104 90.034,392.814 90.304,392.706 90.715 M393.395 95.300 C 393.031 96.128,392.666 96.218,388.800 96.422 L 384.600 96.643 389.300 96.722 L 394.000 96.800 394.000 95.600 C 394.000 94.163,393.913 94.120,393.395 95.300 " stroke="none" fill="#671613" fill-rule="evenodd"></path><path id="path3" d="M56.600 18.377 C 40.320 18.504,108.660 18.651,208.467 18.704 C 396.058 18.803,391.200 18.767,391.200 20.086 C 391.200 20.651,391.386 20.814,391.833 20.643 C 392.181 20.509,392.541 20.400,392.633 20.400 C 392.725 20.400,392.800 20.130,392.800 19.800 C 392.800 19.470,392.476 19.200,392.080 19.200 C 391.684 19.200,391.137 18.977,390.863 18.703 C 390.329 18.169,117.561 17.903,56.600 18.377 M27.322 21.727 C 27.211 21.906,27.243 22.176,27.393 22.327 C 28.029 22.962,390.982 22.636,391.105 22.000 C 391.234 21.329,27.736 21.056,27.322 21.727 M4.800 39.800 C 4.800 40.130,4.530 40.400,4.200 40.400 C 3.431 40.400,3.431 40.962,4.200 41.600 C 4.530 41.874,4.800 42.367,4.800 42.696 C 4.800 43.120,5.061 43.223,5.700 43.052 C 6.195 42.919,11.370 42.806,17.200 42.799 C 23.030 42.793,28.001 42.656,28.246 42.494 C 29.077 41.947,29.260 40.517,28.585 39.842 C 27.646 38.903,4.800 38.863,4.800 39.800 M27.800 41.200 L 27.800 42.200 18.200 42.319 C 7.708 42.449,5.278 42.268,4.918 41.332 C 4.466 40.153,5.884 40.006,16.800 40.103 L 27.800 40.200 27.800 41.200 M29.100 86.832 C 28.251 87.327,28.184 88.927,28.980 89.723 C 30.390 91.133,389.946 91.309,390.976 89.900 C 391.258 89.515,391.693 89.200,391.944 89.200 C 392.622 89.200,392.496 88.121,391.711 87.205 C 390.922 86.283,30.678 85.913,29.100 86.832 M354.900 87.066 C 393.699 87.350,392.555 87.285,390.720 89.120 C 390.062 89.778,30.384 89.824,29.726 89.166 C 29.488 88.928,29.382 88.389,29.492 87.969 C 29.686 87.227,30.556 87.202,60.146 87.100 C 133.922 86.846,321.813 86.824,354.900 87.066 M3.975 107.830 C 3.123 108.857,3.095 110.000,3.923 110.000 C 4.317 110.000,4.821 110.181,5.043 110.403 C 5.596 110.956,57.282 110.755,57.467 110.199 C 57.540 109.979,56.475 109.259,55.100 108.599 L 52.600 107.400 28.556 107.291 C 6.797 107.192,4.462 107.244,3.975 107.830 M55.134 109.200 L 56.467 110.200 31.178 110.303 C 4.860 110.410,4.800 110.407,4.800 108.739 C 4.800 107.996,5.426 107.979,29.300 108.088 L 53.800 108.200 55.134 109.200 " stroke="none" fill="#e4948c" fill-rule="evenodd"></path><path id="path4" d="M29.200 13.318 C 28.624 13.609,28.181 14.195,28.155 14.701 C 28.130 15.184,28.251 15.492,28.423 15.386 C 28.595 15.280,28.975 15.432,29.268 15.725 C 29.560 16.018,29.950 16.274,30.133 16.295 C 31.270 16.425,30.659 16.800,29.309 16.800 C 27.861 16.800,27.200 17.249,27.200 18.233 C 27.200 18.833,62.381 17.980,72.262 17.140 C 77.424 16.702,77.891 16.602,76.838 16.159 C 75.321 15.521,73.744 14.000,74.600 14.000 C 74.930 14.000,75.200 13.730,75.200 13.400 C 75.200 12.577,30.823 12.497,29.200 13.318 M356.800 13.359 C 356.800 13.675,357.025 14.024,357.300 14.135 C 357.700 14.296,357.700 14.343,357.300 14.368 C 357.025 14.386,356.800 14.648,356.800 14.951 C 356.800 15.255,356.215 15.750,355.500 16.051 C 353.470 16.908,359.195 17.453,376.000 18.004 C 383.810 18.260,390.513 18.633,390.895 18.834 C 392.119 19.479,392.915 19.282,392.682 18.393 C 392.566 17.949,392.738 17.319,393.064 16.993 C 393.390 16.667,393.532 16.400,393.380 16.400 C 393.227 16.400,393.294 16.169,393.528 15.886 C 393.763 15.604,393.889 15.019,393.808 14.586 C 393.727 14.154,393.647 13.582,393.631 13.315 C 393.581 12.531,356.800 12.575,356.800 13.359 M27.401 22.731 C 27.622 22.969,29.242 23.216,31.001 23.281 L 34.200 23.400 31.300 23.964 L 28.400 24.528 28.400 27.984 C 28.400 30.183,28.218 31.644,27.900 32.001 C 27.506 32.442,27.564 32.438,28.175 31.981 C 28.859 31.468,28.923 31.472,28.719 32.017 C 28.593 32.356,28.739 32.975,29.044 33.393 C 29.353 33.816,29.600 35.096,29.600 36.276 L 29.600 38.400 17.426 38.400 C 10.484 38.400,4.811 38.568,4.226 38.790 C 2.957 39.273,2.752 40.842,4.000 40.516 C 4.440 40.401,4.800 40.058,4.800 39.753 C 4.800 38.858,27.686 38.943,28.585 39.842 C 29.260 40.517,29.077 41.947,28.246 42.494 C 28.001 42.656,22.940 42.803,17.000 42.822 C 6.221 42.856,5.089 42.957,4.900 43.900 C 4.758 44.609,5.892 44.522,6.300 43.794 C 6.593 43.270,8.191 43.202,18.019 43.294 L 29.400 43.400 29.600 64.000 L 29.800 84.600 28.656 85.964 C 26.343 88.722,27.518 91.157,31.200 91.233 L 33.400 91.279 31.600 91.758 C 30.086 92.162,29.800 92.394,29.800 93.219 L 29.800 94.200 37.000 94.450 C 40.960 94.588,49.728 94.723,56.484 94.750 C 68.678 94.800,68.775 94.807,69.607 95.700 L 70.445 96.600 85.323 96.629 L 100.200 96.659 87.200 96.389 C 72.933 96.093,74.000 96.157,74.000 95.600 C 74.000 95.380,74.765 95.179,75.700 95.153 C 77.029 95.116,77.179 95.050,76.388 94.853 C 74.581 94.402,75.044 92.796,77.200 92.035 C 79.297 91.295,76.341 91.159,45.875 90.596 C 28.322 90.271,28.400 90.282,28.400 88.186 C 28.400 86.511,29.277 86.401,42.674 86.384 C 65.496 86.356,77.607 85.500,75.846 84.039 C 75.287 83.574,75.200 82.309,75.200 74.600 C 75.200 67.175,75.100 65.615,74.600 65.200 C 74.129 64.809,74.000 63.692,74.000 60.000 C 74.000 56.308,73.871 55.191,73.400 54.800 C 72.898 54.383,72.800 52.762,72.800 44.837 L 72.800 35.372 73.987 34.671 L 75.175 33.970 75.287 29.326 L 75.400 24.682 77.400 24.049 L 79.400 23.415 71.800 23.158 C 54.088 22.560,27.000 22.300,27.401 22.731 M369.600 22.810 C 365.310 22.966,359.460 23.135,356.600 23.185 L 351.400 23.277 354.000 23.959 L 356.600 24.641 356.703 54.069 C 356.794 80.280,356.737 83.554,356.183 84.014 C 354.435 85.465,363.885 86.333,381.900 86.377 C 389.995 86.397,391.200 86.321,391.200 85.787 C 391.200 85.451,390.930 85.071,390.600 84.945 C 390.230 84.803,390.000 84.195,390.000 83.357 C 390.000 82.599,389.691 81.689,389.300 81.296 C 388.915 80.909,388.538 80.054,388.463 79.396 C 388.388 78.738,388.073 77.916,387.763 77.569 C 387.453 77.221,387.200 76.451,387.200 75.856 C 387.200 75.261,386.930 74.671,386.600 74.545 C 386.192 74.388,386.000 73.749,386.000 72.545 C 386.000 71.341,385.808 70.701,385.400 70.545 C 385.070 70.418,384.800 70.016,384.800 69.651 C 384.800 69.287,384.440 68.316,384.000 67.496 C 383.560 66.675,383.200 65.572,383.200 65.044 C 383.200 64.517,382.930 63.982,382.600 63.855 C 382.254 63.723,382.000 63.125,382.000 62.445 C 382.000 60.745,381.586 59.780,381.150 60.466 C 380.922 60.827,380.808 60.611,380.801 59.800 C 380.783 57.984,380.370 56.800,379.753 56.800 C 379.403 56.800,379.200 56.351,379.200 55.574 C 379.200 54.899,378.994 53.963,378.743 53.493 C 378.399 52.852,378.399 52.600,378.743 52.486 C 378.994 52.402,379.200 51.803,379.200 51.154 C 379.200 50.475,379.454 49.877,379.800 49.745 C 380.130 49.618,380.400 49.097,380.400 48.586 C 380.400 48.075,380.681 47.376,381.024 47.033 C 381.368 46.689,381.755 45.731,381.885 44.904 C 382.015 44.077,382.364 43.256,382.661 43.080 C 382.957 42.904,383.200 42.294,383.200 41.724 C 383.200 41.154,383.458 40.488,383.773 40.244 C 384.088 40.000,384.436 39.188,384.547 38.439 C 384.658 37.691,384.947 36.956,385.189 36.807 C 385.431 36.657,385.717 36.010,385.826 35.368 C 386.126 33.591,386.356 33.125,386.797 33.398 C 387.043 33.550,387.200 32.993,387.200 31.968 C 387.200 30.869,387.428 30.121,387.859 29.806 C 388.222 29.541,388.570 28.845,388.632 28.260 C 388.695 27.676,389.044 26.899,389.409 26.534 C 389.835 26.108,390.010 25.446,389.897 24.682 C 389.764 23.773,389.897 23.447,390.461 23.300 C 393.639 22.469,384.717 22.259,369.600 22.810 M30.772 41.276 C 30.787 41.868,30.620 42.464,30.400 42.600 C 30.151 42.754,30.011 42.044,30.028 40.724 C 30.057 38.519,30.713 39.006,30.772 41.276 M392.400 88.800 C 392.400 89.020,392.195 89.200,391.944 89.200 C 391.693 89.200,391.288 89.452,391.044 89.760 C 390.650 90.257,371.240 91.052,355.000 91.235 L 352.600 91.262 354.600 91.967 C 356.948 92.795,357.504 94.381,355.612 94.853 L 354.600 95.105 355.700 95.153 C 356.588 95.191,357.175 95.731,356.700 96.072 C 356.645 96.111,351.560 96.264,345.400 96.411 C 337.835 96.592,343.639 96.666,363.286 96.639 C 389.249 96.604,392.439 96.532,393.005 95.967 C 393.847 95.125,393.964 93.170,393.224 92.304 C 392.857 91.875,392.674 90.994,392.745 90.004 C 392.809 89.122,392.757 88.400,392.631 88.400 C 392.504 88.400,392.400 88.580,392.400 88.800 M72.000 95.800 C 72.000 96.130,71.820 96.400,71.600 96.400 C 71.380 96.400,71.200 96.130,71.200 95.800 C 71.200 95.470,71.380 95.200,71.600 95.200 C 71.820 95.200,72.000 95.470,72.000 95.800 M4.966 106.367 C 4.875 106.458,4.800 106.679,4.800 106.858 C 4.800 107.036,15.555 107.231,28.700 107.291 C 41.845 107.351,52.960 107.546,53.400 107.725 C 53.840 107.904,53.660 107.724,53.000 107.325 C 51.904 106.663,50.450 106.591,36.200 106.498 C 27.620 106.443,17.120 106.353,12.866 106.298 C 8.612 106.244,5.057 106.275,4.966 106.367 M57.477 110.144 C 57.177 110.925,5.480 111.177,5.000 110.400 C 4.644 109.824,3.200 109.907,3.200 110.503 C 3.200 111.861,5.938 112.000,32.594 112.000 C 60.355 112.000,59.604 112.052,58.264 110.220 C 57.780 109.558,57.704 109.551,57.477 110.144 " stroke="none" fill="#9c1b1c" fill-rule="evenodd"></path></g></svg>