<?xml version="1.0" standalone="no"?>
<!DOCTYPE svg PUBLIC "-//W3C//DTD SVG 20010904//EN"
 "http://www.w3.org/TR/2001/REC-SVG-20010904/DTD/svg10.dtd">
<svg version="1.0" xmlns="http://www.w3.org/2000/svg"
 width="300.000000pt" height="300.000000pt" viewBox="0 0 300.000000 300.000000"
 preserveAspectRatio="xMidYMid meet">

<g transform="translate(0.000000,300.000000) scale(0.100000,-0.100000)"
fill="#000000" stroke="none">
<path d="M220 2880 c0 -20 7 -20 1355 -20 1344 0 1354 0 1365 20 11 20 8 20
-1355 20 -1358 0 -1365 0 -1365 -20z"/>
<path d="M218 2788 l-3 -43 -97 -5 c-73 -4 -95 -8 -90 -17 5 -8 41 -13 97 -15
60 -2 90 -7 93 -15 3 -10 -18 -13 -82 -13 -47 0 -86 -2 -86 -4 0 -2 20 -53 45
-112 25 -60 45 -114 45 -119 0 -6 -20 -61 -45 -123 -25 -61 -45 -114 -45 -116
0 -3 81 -6 180 -8 126 -2 183 -7 192 -15 10 -10 -28 -13 -189 -13 -192 0 -201
-1 -206 -20 -5 -20 0 -20 244 -20 l249 0 0 80 0 80 1215 0 c1074 0 1214 2
1209 15 -5 13 -170 15 -1367 17 -1078 2 -1361 6 -1365 16 -3 9 272 12 1353 12
1288 0 1357 1 1351 18 -4 9 -25 66 -48 125 l-41 108 33 82 c18 45 39 97 47
115 l13 32 -1349 0 -1350 0 -3 -42z"/>
<path d="M230 1870 c0 -20 7 -20 1355 -20 1344 0 1354 0 1365 20 11 20 8 20
-1355 20 -1358 0 -1365 0 -1365 -20z"/>
<path d="M228 1778 l-3 -43 -97 -5 c-73 -4 -95 -8 -90 -17 5 -8 41 -13 97 -15
60 -2 90 -7 93 -15 3 -10 -18 -13 -82 -13 -47 0 -86 -2 -86 -4 0 -2 20 -53 45
-112 25 -60 45 -114 45 -119 0 -6 -20 -61 -45 -123 -25 -61 -45 -114 -45 -116
0 -3 81 -6 180 -8 126 -2 183 -7 192 -15 10 -10 -28 -13 -189 -13 -192 0 -201
-1 -206 -20 -5 -20 0 -20 244 -20 l249 0 0 80 0 80 1215 0 c1074 0 1214 2
1209 15 -5 13 -170 15 -1367 17 -1078 2 -1361 6 -1365 16 -3 9 272 12 1353 12
1288 0 1357 1 1351 18 -4 9 -25 66 -48 125 l-41 108 33 82 c18 45 39 97 47
115 l13 32 -1349 0 -1350 0 -3 -42z"/>
<path d="M230 890 c0 -20 7 -20 1355 -20 1344 0 1354 0 1365 20 11 20 8 20
-1355 20 -1358 0 -1365 0 -1365 -20z"/>
<path d="M228 798 l-3 -43 -97 -5 c-73 -4 -95 -8 -90 -17 5 -8 41 -13 97 -15
60 -2 90 -7 93 -15 3 -10 -18 -13 -82 -13 -47 0 -86 -2 -86 -4 0 -2 20 -53 45
-112 25 -60 45 -114 45 -119 0 -6 -20 -61 -45 -123 -25 -61 -45 -114 -45 -116
0 -3 81 -6 180 -8 126 -2 183 -7 192 -15 10 -10 -28 -13 -189 -13 -192 0 -201
-1 -206 -20 -5 -20 0 -20 244 -20 l249 0 0 80 0 80 1215 0 c1074 0 1214 2
1209 15 -5 13 -170 15 -1367 17 -1078 2 -1361 6 -1365 16 -3 9 272 12 1353 12
1288 0 1357 1 1351 17 -4 10 -25 67 -48 126 l-41 108 33 82 c18 45 39 97 47
115 l13 32 -1349 0 -1350 0 -3 -42z"/>
</g>
</svg>
